# xmcd
#
# Track frame offsets:
#	225
#	18875
#	36008
#	53758
#	69857
#	82032
#	98307
#	111959
#	131360
#	145798
#	160880
#	190023
#	210020
#
# Disc length: 2930 seconds
#
# Revision: 1
# Processed by: cddbd v1.5.1PL0 Copyright (c) Steve Scherf et al.
# Submitted via: audiograbber 1.82.01
#
DISCID=960b6f0d
DTITLE=John Cephas, Woody Mann, and Orville Johnson - Together in Las Vegas
DYEAR=2004
DGENRE=Blues
TTITLE0=Flip, Flop and Fly
TTITLE1=Soul of a Man
TTITLE2=Broke Down Engine
TTITLE3=Death Don't Have No Mercy
TTITLE4=How You Want Your Loving Done
TTITLE5=Love Crazy
TTITLE6=Jesus Is Calling
TTITLE7=Richmond Blues
TTITLE8=Try Me
TTITLE9=Girl of Seven
TTITLE10=Illinois Blues
TTITLE11=Careless Love
TTITLE12=I Will Do My Last Singing
EXTD=
EXTT0=
EXTT1=
EXTT2=
EXTT3=
EXTT4=
EXTT5=
EXTT6=
EXTT7=
EXTT8=
EXTT9=
EXTT10=
EXTT11=
EXTT12=
PLAYORDER=
